<svg width="108" height="82" viewBox="0 0 108 82" fill="none" xmlns="http://www.w3.org/2000/svg">
<path d="M31.2652 12.4006C36.6876 13.3569 41.1146 17.425 43.8421 23.3892C46.5679 29.3501 47.5551 37.1368 46.111 45.3275C44.6667 53.5183 41.0757 60.4984 36.4754 65.1676C31.8726 69.8393 26.3211 72.1479 20.8987 71.1919C15.4762 70.2358 11.0484 66.1676 8.32088 60.2032C5.59499 54.2422 4.6079 46.4548 6.05216 38.264C7.49647 30.0734 11.0874 23.0939 15.6875 18.4248C20.2905 13.7529 25.8426 11.4445 31.2652 12.4006Z" fill="white" stroke="black" stroke-width="1.5"/>
<circle cx="26" cy="51" r="10" fill="black"/>
<path d="M81.8323 5.16663C88.4546 6.33431 93.8438 11.2997 97.1563 18.5435C100.467 25.7838 101.663 35.2323 99.9116 45.1637C98.1604 55.0951 93.8054 63.5649 88.2179 69.2361C82.6276 74.9102 75.8651 77.7329 69.2428 76.5652C62.6206 75.3975 57.2314 70.4321 53.9189 63.1883C50.608 55.948 49.4124 46.4995 51.1636 36.5681C52.9148 26.6367 57.2698 18.167 62.8573 12.4957C68.4476 6.82168 75.2101 3.99895 81.8323 5.16663Z" fill="white" stroke="black" stroke-width="1.5"/>
<circle cx="70.5" cy="54.5" r="12.5" fill="black"/>
</svg>
