<svg width="108" height="79" viewBox="0 0 108 79" fill="none" xmlns="http://www.w3.org/2000/svg">
<path d="M35.4925 69.5045C30.327 70.0473 25.25 67.5103 21.2186 62.8026C17.1897 58.0977 14.263 51.2782 13.4409 43.4569C12.619 35.6357 14.0639 28.3575 17.0266 22.9178C19.9911 17.4748 24.4296 13.9377 29.5951 13.3947C34.7608 12.8517 39.8384 15.3886 43.8699 20.0965C47.8988 24.8014 50.8254 31.6201 51.6475 39.4412C52.4696 47.2626 51.0247 54.5414 48.062 59.9813C45.0974 65.4244 40.6582 68.9616 35.4925 69.5045Z" fill="white" stroke="black" stroke-width="1.5"/>
<path fill-rule="evenodd" clip-rule="evenodd" d="M30.8665 49.0523C24.3347 50.9253 20.558 57.7387 22.431 64.2704C22.5036 64.5238 22.5837 64.7731 22.671 65.018C26.4193 68.4241 30.8595 70.2182 35.4246 69.7384C39.6957 69.2895 43.446 66.9162 46.3341 63.2456C46.6988 61.3927 46.6409 59.4279 46.0846 57.4879C44.2117 50.9561 37.3983 47.1794 30.8665 49.0523Z" fill="black"/>
<path d="M71.5069 72.4231C65.2564 71.3209 60.1654 66.6337 57.0341 59.7863C53.9044 52.9423 52.7727 44.0079 54.4288 34.6156C56.085 25.2234 60.204 17.2157 65.4857 11.8548C70.7702 6.49123 77.1573 3.82705 83.4079 4.92914C89.6586 6.0313 94.7492 10.7193 97.8805 17.5669C101.01 24.4109 102.142 33.3444 100.486 42.7367C98.8298 52.1291 94.7107 60.1375 89.4289 65.4984C84.1445 70.8618 77.7574 73.5252 71.5069 72.4231Z" fill="white" stroke="black" stroke-width="1.5"/>
<path fill-rule="evenodd" clip-rule="evenodd" d="M73.2342 52.213C66.4392 52.213 60.9307 57.7215 60.9307 64.5165C60.9307 64.7801 60.939 65.0418 60.9554 65.3013C63.6197 69.6086 67.3933 72.557 71.9138 73.3541C76.1432 74.0999 80.4024 72.8523 84.1904 70.12C85.0517 68.4394 85.5376 66.5347 85.5376 64.5165C85.5376 57.7215 80.0292 52.213 73.2342 52.213Z" fill="black"/>
</svg>
