<svg width="429" height="366" viewBox="0 0 429 366" fill="none" xmlns="http://www.w3.org/2000/svg">
<path d="M346.392 65.6604C337.108 56.2092 322.697 54.0999 306.802 58.475C290.916 62.8475 273.635 73.6815 258.747 89.9621C243.859 106.243 234.216 124.852 230.642 141.758C227.067 158.675 229.581 173.794 238.865 183.245C248.149 192.697 262.56 194.807 278.455 190.432C294.34 186.059 311.622 175.225 326.51 158.944C341.398 142.664 351.041 124.054 354.614 107.148C358.19 90.2316 355.676 75.1115 346.392 65.6604Z" fill="#C3E1FF" stroke="black"/>
<path d="M365.358 246.616C367.233 238.149 363.389 228.856 355.486 220.652C347.589 212.456 335.698 205.419 321.679 201.516C307.661 197.613 294.215 197.596 283.816 200.698C273.408 203.803 266.132 210 264.256 218.467C262.381 226.934 266.226 236.228 274.129 244.432C282.026 252.628 293.917 259.665 307.935 263.568C321.954 267.471 335.4 267.488 345.799 264.386C356.208 261.281 363.483 255.083 365.358 246.616Z" fill="#C3E1FF" stroke="black"/>
<path d="M111.003 319.047C117.08 325.233 126.534 326.634 137.006 323.751C147.469 320.871 158.863 313.731 168.683 302.992C178.503 292.254 184.858 279.985 187.211 268.85C189.567 257.704 187.903 247.786 181.825 241.599C175.748 235.412 166.293 234.012 155.821 236.895C145.358 239.775 133.965 246.914 124.145 257.653C114.325 268.391 107.969 280.661 105.616 291.796C103.26 302.941 104.926 312.86 111.003 319.047Z" fill="#C3E1FF" stroke="black"/>
<path d="M193.525 197.253C196.39 184.318 190.509 170.163 178.513 157.712C166.524 145.268 148.484 134.597 127.231 128.679C105.978 122.762 85.5813 122.732 69.7928 127.442C53.9948 132.155 42.8918 141.581 40.0268 154.515C37.1618 167.45 43.0419 181.605 55.0381 194.056C67.0272 206.5 85.067 217.171 106.32 223.089C127.573 229.006 147.97 229.036 163.758 224.326C179.557 219.613 190.66 210.188 193.525 197.253Z" fill="#C3E1FF" stroke="black"/>
<path d="M185.798 85.9694C168.888 90.8182 157.109 107.928 151.843 131.899C146.581 155.848 147.857 186.519 156.948 218.223C166.039 249.927 181.21 276.614 198.363 294.135C215.532 311.673 234.588 319.94 251.498 315.091C268.407 310.242 280.187 293.134 285.453 269.163C290.715 245.214 289.438 214.542 280.347 182.838C271.256 151.135 256.086 124.448 238.933 106.926C221.764 89.3884 202.708 81.1207 185.798 85.9694Z" fill="#282828" stroke="black"/>
<path d="M232.944 141.907C224.623 142.69 216.426 138.229 209.9 130.246C203.378 122.267 198.576 110.817 197.071 97.7872C195.566 84.7578 197.649 72.6609 202.207 63.639C206.767 54.612 213.769 48.7207 222.09 47.9377C230.411 47.1549 238.608 51.6159 245.133 59.5995C251.655 67.5788 256.458 79.0277 257.963 92.0572C259.468 105.087 257.385 117.184 252.827 126.206C248.266 135.233 241.265 141.123 232.944 141.907Z" fill="white" stroke="black"/>
<ellipse cx="223.663" cy="81.0457" rx="14.7089" ry="15.6478" transform="rotate(164 223.663 81.0457)" fill="black"/>
<path d="M171.524 177.146C161.416 178.098 151.472 172.678 143.568 163.007C135.667 153.34 129.853 139.476 128.031 123.704C126.209 107.932 128.73 93.2834 134.251 82.3538C139.776 71.4192 148.267 64.2647 158.375 63.3135C168.484 62.3623 178.428 67.782 186.332 77.4529C194.233 87.1194 200.047 100.984 201.869 116.756C203.69 132.528 201.17 147.177 195.648 158.106C190.124 169.041 181.632 176.195 171.524 177.146Z" fill="white" stroke="black"/>
<ellipse cx="166.192" cy="97.6783" rx="18.3861" ry="19.5597" transform="rotate(164 166.192 97.6783)" fill="black"/>
</svg>
