<svg width="132" height="34" viewBox="0 0 132 34" fill="none" xmlns="http://www.w3.org/2000/svg">
<path d="M10.8721 33.048L5.86957e-05 1.07999L7.63206 0.575988L8.49606 7.12799L14.3281 27.072L20.7361 8.27999L18.5041 1.00799L25.9201 0.575988L26.6401 7.12799L31.5361 26.208L37.9441 8.20799L38.7361 1.07999H46.2241L33.6961 32.616L28.2961 33.048L22.8961 15.48L16.6321 32.616L10.8721 33.048ZM65.3502 33.768C60.8862 33.768 57.4062 32.352 54.9102 29.52C52.4622 26.688 51.2382 22.656 51.2382 17.424C51.2382 12.144 52.5582 7.91999 55.1982 4.75199C57.8382 1.58399 61.3902 -1.35899e-05 65.8542 -1.35899e-05C70.3662 -1.35899e-05 73.8462 1.41599 76.2942 4.24799C78.7902 7.03199 80.0382 11.064 80.0382 16.344C80.0382 21.576 78.7182 25.8 76.0782 29.016C73.4382 32.184 69.8622 33.768 65.3502 33.768ZM66.4302 29.376C67.8702 29.376 69.4062 29.136 71.0382 28.656C72.6222 26.4 73.4142 22.848 73.4142 18C73.4142 13.104 72.6942 9.62399 71.2542 7.55999C69.8622 5.44799 67.6782 4.39199 64.7022 4.39199C63.5982 4.39199 62.1102 4.63199 60.2382 5.11199C58.6542 7.31999 57.8622 10.872 57.8622 15.768C57.8622 20.664 58.5342 24.168 59.8782 26.28C61.2702 28.344 63.4542 29.376 66.4302 29.376ZM95.9502 33.048L85.0782 1.07999L92.7102 0.575988L93.5742 7.12799L99.4062 27.072L105.814 8.27999L103.582 1.00799L110.998 0.575988L111.718 7.12799L116.614 26.208L123.022 8.20799L123.814 1.07999H131.302L118.774 32.616L113.374 33.048L107.974 15.48L101.71 32.616L95.9502 33.048Z" fill="white"/>
</svg>
